<svg id="Layer_1" data-name="Layer 1" xmlns="http://www.w3.org/2000/svg" viewBox="0 0 593.8314 593.8314">
  <defs>
    <style>
      .cls-1 {
        fill: #2cbeff;
      }

      .cls-2 {
        fill: #ffc112;
      }
    </style>
  </defs>
  <g>
    <path class="cls-1" d="M379.6161,440.5809a86.32,86.32,0,0,0-17.9634-28.1272c-6.6608-8.1633-15.5644-13.08-23.0849-20.2144a74.4889,74.4889,0,0,1-16.8533-24.0712c-4.701-10.7186-5.8792-22.4-6.1294-34.0946-1.219-24.7464-37.28-24.2983-37.7625.5411.1032,20.31,2.96,41.3344,14.2618,58.6763,16.8192,26.828,58.77,39.785,56.2451,76.5219-.8689,45.8572-63.5712,55.4114-78.5124,12.7685-8.2487-22.8774-41.9279-12.0766-35.2212,11.2792C271.7812,592.8711,415.1745,540.9781,379.6161,440.5809Z"/>
    <circle class="cls-1" cx="296.916" cy="285.2718" r="18.8406"/>
    <path class="cls-2" d="M199.11,266.4769v.0156a18.8562,18.8562,0,0,1-18.9351,18.7793H94.7817a18.8555,18.8555,0,0,1-18.9343-18.7793v-.0156a18.8555,18.8555,0,0,1,18.9343-18.7792h85.3932A18.8562,18.8562,0,0,1,199.11,266.4769Z"/>
    <path class="cls-2" d="M517.984,266.4769v.0156a18.8561,18.8561,0,0,1-18.935,18.7793H413.6557a18.8555,18.8555,0,0,1-18.9343-18.7793v-.0156a18.8555,18.8555,0,0,1,18.9343-18.7792H499.049A18.8561,18.8561,0,0,1,517.984,266.4769Z"/>
    <path class="cls-2" d="M248.5184,182.347l-.0135.0078a18.8562,18.8562,0,0,1-25.7274-7.0213l-42.66-73.9738a18.8554,18.8554,0,0,1,6.809-25.7838l.0134-.0078a18.8555,18.8555,0,0,1,25.727,7.0206l42.66,73.9738A18.8561,18.8561,0,0,1,248.5184,182.347Z"/>
    <path class="cls-2" d="M345.5939,182.3345l.0135.0077a18.8562,18.8562,0,0,0,25.7275-7.0212l42.66-73.9738a18.8555,18.8555,0,0,0-6.8089-25.7839l-.0135-.0077a18.8555,18.8555,0,0,0-25.727,7.0206l-42.66,73.9738A18.8563,18.8563,0,0,0,345.5939,182.3345Z"/>
    <path class="cls-2" d="M487.5865,156.9132a18.7874,18.7874,0,0,1-6.88,25.6662l-113.6722,65.6L336.9072,265.567a7.2542,7.2542,0,0,1-9.523-2.1247,37.4588,37.4588,0,0,0-60.9367.0021,7.2538,7.2538,0,0,1-9.5218,2.1232L226.7964,248.18,112.9549,182.3967a18.7875,18.7875,0,0,1-6.87-25.661l.0072-.0123a18.7873,18.7873,0,0,1,25.67-6.8727l113.7988,65.7605,6.3117,3.6532a17.4982,17.4982,0,0,0,26.2563-15.1572V65.6335A18.7874,18.7874,0,0,1,296.916,46.8461h0a18.7874,18.7874,0,0,1,18.7874,18.7874V204.1228A17.5082,17.5082,0,0,0,341.96,219.28l6.2965-3.6532L461.9181,150.024a18.7873,18.7873,0,0,1,25.6617,6.8775Z"/>
  </g>
</svg>
